#!OML:ASF C:\Vicon Data\Big\jianyuan-12\jianyuan\Session 1\Capture.male.ASF
:FULLY-SPECIFIED
:DEGREES
126
root -10.275441 17.224607 -14.305657 1.476521 -23.206786 7.060250
lowerback -9.347554 1.367000 -2.690658 
upperback 3.045282 2.289477 -1.219993 
thorax 8.432067 1.015670 0.597907 
lowerneck 3.267564 -11.916978 -5.399084 
upperneck -6.171588 -15.503864 12.872260 
head -0.891815 -7.941332 4.773261 
rclavicle 0.000000 0.000000 
rhumerus -24.779326 -19.758533 -86.357419 
rradius 41.702268 
rwrist 25.018116 
rhand -21.285056 -4.578331 
rfingers 0.000000 
rthumb 5.099111 -34.496965 
lclavicle 0.000000 0.000000 
lhumerus -57.302561 46.625544 46.276506 
lradius 22.765525 
lwrist -67.696333 
lhand -7.383154 4.801571 
lfingers 0.000000 
lthumb 18.502312 33.941636 
rfemur 3.740360 4.206500 23.583597 
rtibia 26.736347 
rfoot -25.795214 -0.148804 
rtoes 0.534188 
lfemur -27.505040 -7.612065 -18.624879 
ltibia 14.820788 
lfoot -8.846078 -1.423426 
ltoes -36.515230 
127
root -10.285165 17.224255 -14.270859 1.469701 -23.368544 7.081825
lowerback -9.412164 1.403729 -2.701800 
upperback 3.042860 2.342938 -1.226194 
thorax 8.465522 1.040669 0.608037 
lowerneck 3.288421 -11.915236 -5.416235 
upperneck -6.182677 -15.500654 12.901780 
head -0.894874 -7.940880 4.786019 
rclavicle 0.000000 0.000000 
rhumerus -24.842960 -19.865528 -86.278392 
rradius 41.581876 
rwrist 25.187800 
rhand -21.316436 -4.571400 
rfingers 0.000000 
rthumb 5.068817 -34.490761 
lclavicle 0.000000 0.000000 
lhumerus -57.229896 46.629863 46.354284 
lradius 22.781118 
lwrist -67.623344 
lhand -7.391798 4.819479 
lfingers 0.000000 
lthumb 18.494011 33.960339 
rfemur 3.775203 4.212272 23.522159 
rtibia 26.887356 
rfoot -25.681181 -0.082521 
rtoes 0.770350 
lfemur -27.471575 -7.678066 -18.625214 
ltibia 15.010560 
lfoot -8.767241 -1.558738 
ltoes -36.092335 
128
root -10.294908 17.224622 -14.236667 1.430084 -23.517401 7.102231
lowerback -9.416834 1.433965 -2.707695 
upperback 3.039293 2.385676 -1.241609 
thorax 8.463720 1.061730 0.602091 
lowerneck 3.334398 -11.908904 -5.435620 
upperneck -6.207058 -15.489133 12.961877 
head -0.903884 -7.937861 4.810311 
rclavicle 0.000000 0.000000 
rhumerus -24.915843 -19.981840 -86.218704 
rradius 41.444892 
rwrist 25.345170 
rhand -21.325791 -4.612691 
rfingers 0.000000 
rthumb 5.059801 -34.532269 
lclavicle 0.000000 0.000000 
lhumerus -57.217762 46.667571 46.333325 
lradius 22.803506 
lwrist -67.629390 
lhand -7.381380 4.794586 
lfingers 0.000000 
lthumb 18.504020 33.934519 
rfemur 3.843339 4.188720 23.466433 
rtibia 27.049139 
rfoot -25.583907 -0.020340 
rtoes 0.936960 
lfemur -27.401387 -7.754509 -18.622395 
ltibia 15.187091 
lfoot -8.668186 -1.697585 
ltoes -35.541620 
129
root -10.304650 17.224990 -14.202475 1.390467 -23.666257 7.122637
lowerback -9.421504 1.464202 -2.713590 
upperback 3.035727 2.428413 -1.257023 
thorax 8.461919 1.082790 0.596145 
lowerneck 3.380376 -11.902571 -5.455005 
upperneck -6.231440 -15.477612 13.021973 
head -0.912893 -7.934842 4.834603 
rclavicle 0.000000 0.000000 
rhumerus -24.988727 -20.098152 -86.159016 
rradius 41.307908 
rwrist 25.502541 
rhand -21.335147 -4.653982 
rfingers 0.000000 
rthumb 5.050784 -34.573777 
lclavicle 0.000000 0.000000 
lhumerus -57.205628 46.705279 46.312367 
lradius 22.825894 
lwrist -67.635436 
lhand -7.370962 4.769694 
lfingers 0.000000 
lthumb 18.514029 33.908699 
rfemur 3.911476 4.165167 23.410708 
rtibia 27.210921 
rfoot -25.486633 0.041841 
rtoes 1.103571 
lfemur -27.331200 -7.830951 -18.619576 
ltibia 15.363622 
lfoot -8.569131 -1.836432 
ltoes -34.990906 
